<svg width="18" height="18" viewBox="0 0 18 18" fill="none" xmlns="http://www.w3.org/2000/svg">
<g clip-path="url(#clip0_452_2037)">
<path d="M0 8.99994C0 4.02885 4.02891 -6.10352e-05 9 -6.10352e-05C13.9711 -6.10352e-05 18 4.02885 18 8.99994C18 13.971 13.9711 17.9999 9 17.9999C4.02891 17.9999 0 13.971 0 8.99994ZM13.0711 7.44603C13.4543 7.06283 13.4543 6.43705 13.0711 6.05384C12.6879 5.67064 12.0621 5.67064 11.6789 6.05384L7.875 9.85775L6.32109 8.30385C5.93789 7.92064 5.31211 7.92064 4.92891 8.30385C4.5457 8.68705 4.5457 9.31283 4.92891 9.69603L7.17891 11.946C7.56211 12.3292 8.18789 12.3292 8.57109 11.946L13.0711 7.44603Z" fill="#009368"/>
</g>
<defs>
<clipPath id="clip0_452_2037">
<rect width="18" height="18" fill="white"/>
</clipPath>
</defs>
</svg>
